<?xml version="1.0" encoding="UTF-8"?> <svg xmlns="http://www.w3.org/2000/svg" xmlns:xlink="http://www.w3.org/1999/xlink" zoomAndPan="magnify" preserveAspectRatio="xMidYMid meet" version="1.0" viewBox="204.39 236.75 196.81 112"><defs><g></g></defs><g fill="#ffffff" fill-opacity="1"><g transform="translate(191.594187, 348.75002)"><g><path d="M 12.796875 -112 L 63.203125 -112 C 69.390625 -112 75.039062 -111.007812 80.15625 -109.03125 C 85.28125 -107.0625 89.65625 -104.316406 93.28125 -100.796875 C 96.90625 -97.273438 99.726562 -93.113281 101.75 -88.3125 C 103.78125 -83.519531 104.796875 -78.347656 104.796875 -72.796875 C 104.796875 -67.140625 103.78125 -61.9375 101.75 -57.1875 C 99.726562 -52.445312 96.90625 -48.316406 93.28125 -44.796875 C 89.65625 -41.273438 85.28125 -38.523438 80.15625 -36.546875 C 75.039062 -34.578125 69.390625 -33.59375 63.203125 -33.59375 L 43.203125 -33.59375 L 43.203125 0 L 12.796875 0 Z M 61.59375 -60.796875 C 65.226562 -60.796875 68.269531 -61.992188 70.71875 -64.390625 C 73.175781 -66.796875 74.40625 -69.597656 74.40625 -72.796875 C 74.40625 -75.992188 73.175781 -78.789062 70.71875 -81.1875 C 68.269531 -83.59375 65.226562 -84.796875 61.59375 -84.796875 L 43.203125 -84.796875 L 43.203125 -60.796875 Z M 61.59375 -60.796875 "></path></g></g></g><g fill="#00c2cb" fill-opacity="1"><g transform="translate(302.793401, 348.75002)"><g><path d="M 7.203125 -28.796875 L 56 -83.203125 L 9.59375 -83.203125 L 9.59375 -112 L 96.796875 -112 L 96.796875 -83.203125 L 48 -28.796875 L 98.40625 -28.796875 L 98.40625 0 L 7.203125 0 Z M 7.203125 -28.796875 "></path></g></g></g></svg> 